<?xml version="1.0" encoding="UTF-8"?> <svg xmlns="http://www.w3.org/2000/svg" width="99" height="36" viewBox="0 0 99 36" fill="none"><g clip-path="url(#clip0_1_1726)"><path d="M6.37201 36.0113L0 0H5.45688L9.27556 25.3852L13.1055 0H18.5624L12.1904 36.0113H6.37201Z" fill="#C84D16"></path><path d="M29.6516 4.74268H25.4827L30.273 20.2584V31.2684H34.0691V20.2584L38.8707 4.74268H34.6904L32.171 15.3349L29.6516 4.74268Z" fill="#C84D16"></path><path d="M50.6934 12.6359C50.6934 11.3034 50.1737 10.6485 49.1682 10.6485C48.1626 10.6485 47.6429 11.3034 47.6429 12.6359V23.3749C47.6429 24.7074 48.1626 25.3963 49.1682 25.3963C50.1737 25.3963 50.6934 24.7187 50.6934 23.3749V12.6359ZM49.2811 7.47532C52.1169 7.47532 53.9811 9.39498 53.9811 12.6585V23.0136C53.9811 26.5933 52.2073 28.5355 49.1682 28.5355C46.129 28.5355 44.3892 26.6158 44.3892 22.8893V12.5343C44.3892 9.3837 46.1968 7.44141 49.2811 7.44141" fill="#C84D16"></path><path d="M70.0374 4.74268V21.9974L64.5127 4.74268H60.8296V31.2684H64.6257V15.0639L70.0374 31.2684H73.8786V4.74268H70.0374Z" fill="#C84D16"></path><path d="M90.0667 30.7039C92.1568 30.7039 92.9703 29.3827 92.9703 26.9322V9.58719C92.9703 6.6286 91.5919 5.30735 88.5302 5.30735H87.2535V30.7039H90.0554H90.0667ZM81.7515 0H89.66C95.8399 0 98.6418 3.21826 98.6418 9.89204V25.9611C98.6418 32.8494 96.0885 36.0112 89.9198 36.0112H81.7515V0Z" fill="#C84D16"></path></g><defs><clipPath id="clip0_1_1726"><rect width="98.6425" height="36" fill="white"></rect></clipPath></defs></svg> 