<?xml version="1.0" encoding="UTF-8"?>
<svg id="Capa_2" data-name="Capa 2" xmlns="http://www.w3.org/2000/svg" xmlns:xlink="http://www.w3.org/1999/xlink" viewBox="0 0 2892.52 771.18">
  <defs>
    <style>
      .cls-1 {
        clip-path: url(#clippath-6);
      }

      .cls-2 {
        clip-path: url(#clippath-7);
      }

      .cls-3 {
        clip-path: url(#clippath-4);
      }

      .cls-4 {
        fill: url(#Degradado_sin_nombre_7-3);
      }

      .cls-5 {
        fill: none;
      }

      .cls-6 {
        clip-path: url(#clippath-1);
      }

      .cls-7 {
        clip-path: url(#clippath-5);
      }

      .cls-8 {
        fill: url(#Degradado_sin_nombre_7-4);
      }

      .cls-9 {
        clip-path: url(#clippath-3);
      }

      .cls-10 {
        fill: url(#Degradado_sin_nombre_7);
      }

      .cls-11 {
        fill: url(#Degradado_sin_nombre_7-7);
      }

      .cls-12 {
        fill: url(#Degradado_sin_nombre_7-6);
      }

      .cls-13 {
        clip-path: url(#clippath-2);
      }

      .cls-14 {
        fill: url(#Degradado_sin_nombre_7-5);
      }

      .cls-15 {
        fill: url(#Degradado_sin_nombre_7-2);
      }

      .cls-16 {
        clip-path: url(#clippath);
      }
    </style>
    <clipPath id="clippath">
      <rect class="cls-5" width="2892.52" height="771.18"/>
    </clipPath>
    <clipPath id="clippath-1">
      <path class="cls-5" d="M65.25,0C29.21,0,0,29.21,0,65.25s29.21,65.25,65.25,65.25h169.65v549.72c0,45.94,37.25,83.19,83.19,83.19s83.19-37.25,83.19-83.19V130.49h172.91c36.04,0,65.25-29.21,65.25-65.25S610.22,0,574.19,0H65.25Z"/>
    </clipPath>
    <linearGradient id="Degradado_sin_nombre_7" data-name="Degradado sin nombre 7" x1="-5233.17" y1="1244.27" x2="-5229.91" y2="1244.27" gradientTransform="translate(4572953.5 1087674.33) scale(873.84 -873.84)" gradientUnits="userSpaceOnUse">
      <stop offset="0" stop-color="#9ad0d7"/>
      <stop offset="1" stop-color="#4488c7"/>
    </linearGradient>
    <clipPath id="clippath-2">
      <path class="cls-5" d="M936.32,440.43c0,32.43,26.29,58.72,58.72,58.72s58.72-26.29,58.72-58.72-26.29-58.72-58.72-58.72-58.72,26.29-58.72,58.72"/>
    </clipPath>
    <linearGradient id="Degradado_sin_nombre_7-2" data-name="Degradado sin nombre 7" x1="-5233.17" y1="1244.22" x2="-5229.91" y2="1244.22" gradientTransform="translate(4572953.65 1087692.33) scale(873.84 -873.84)" xlink:href="#Degradado_sin_nombre_7"/>
    <clipPath id="clippath-3">
      <path class="cls-5" d="M1536.6,0c-36.04,0-65.25,29.21-65.25,65.25s29.21,65.25,65.25,65.25h512.2c36.04,0,65.25-29.21,65.25-65.25S2084.84,0,2048.81,0h-512.2Z"/>
    </clipPath>
    <linearGradient id="Degradado_sin_nombre_7-3" data-name="Degradado sin nombre 7" x1="-5233.17" y1="1244.52" x2="-5229.91" y2="1244.52" gradientTransform="translate(4572953.65 1087577.33) scale(873.84 -873.84)" xlink:href="#Degradado_sin_nombre_7"/>
    <clipPath id="clippath-4">
      <path class="cls-5" d="M1536.6,319.72c-36.04,0-65.25,29.21-65.25,65.25s29.21,65.25,65.25,65.25h512.2c36.04,0,65.25-29.22,65.25-65.25s-29.21-65.25-65.25-65.25h-512.2Z"/>
    </clipPath>
    <linearGradient id="Degradado_sin_nombre_7-4" data-name="Degradado sin nombre 7" x1="-5233.17" y1="1244.27" x2="-5229.91" y2="1244.27" gradientTransform="translate(4572953.65 1087675.33) scale(873.84 -873.84)" xlink:href="#Degradado_sin_nombre_7"/>
    <clipPath id="clippath-5">
      <path class="cls-5" d="M1536.6,639.44c-36.04,0-65.25,29.21-65.25,65.25s29.21,65.25,65.25,65.25h512.2c36.04,0,65.25-29.21,65.25-65.25s-29.21-65.25-65.25-65.25h-512.2Z"/>
    </clipPath>
    <linearGradient id="Degradado_sin_nombre_7-5" data-name="Degradado sin nombre 7" x1="-5233.17" y1="1244.01" x2="-5229.91" y2="1244.01" gradientTransform="translate(4572953.65 1087773.33) scale(873.84 -873.84)" xlink:href="#Degradado_sin_nombre_7"/>
    <clipPath id="clippath-6">
      <path class="cls-5" d="M995.85,0c-44.02,0-77.96,16.77-102.44,36.05-26.61,20.96-46.28,49.47-57.77,81.33l-196.41,544.54c-15.28,42.37,6.68,89.11,49.05,104.39,9.05,3.27,18.3,4.83,27.4,4.86h.56c33.3-.12,64.48-20.77,76.43-53.91l203.17-563.29,202.55,561.56c15.52,43.01,63.79,66.55,106.5,50.23,41.4-15.83,62.68-61.97,47.57-103.85l-196.3-544.23c-12.17-33.74-33.47-63.69-62.3-85.03-24.09-17.82-56.59-32.68-98.02-32.68Z"/>
    </clipPath>
    <linearGradient id="Degradado_sin_nombre_7-6" data-name="Degradado sin nombre 7" x1="-5233.17" y1="1244.26" x2="-5229.91" y2="1244.26" gradientTransform="translate(4572953.65 1087675.52) scale(873.84 -873.84)" xlink:href="#Degradado_sin_nombre_7"/>
    <clipPath id="clippath-7">
      <path class="cls-5" d="M2447.61,26.22c-43.33,17.47-81.12,42.91-113.37,76.33-32.25,33.43-57.02,73.65-74.32,120.67-17.31,47.03-25.95,100.27-25.95,159.72,0,36.62,3.44,71.22,10.33,103.79,6.88,32.59,17.21,63.24,30.99,91.95,13.77,28.72,30.4,54.67,49.88,77.85,21.83,25.53,45.77,46.1,71.8,61.72,26.03,15.62,55,27.13,86.91,34.51,31.91,7.39,67.35,11.09,106.32,11.09,51.39,0,96.4-8.24,135.03-24.69,38.63-16.46,70.37-37.87,95.23-64.24,24.86-26.37,43.08-53.24,54.67-80.62,11.59-27.37,17.39-52.82,17.39-76.33,0-18.47-6.38-33.92-19.15-46.36-12.77-12.42-28.05-18.64-45.85-18.64-20.83,0-35.95,6.13-45.35,18.39-9.41,12.27-17.3,28.14-23.68,47.62-15.11,41.32-37.54,72.64-67.26,93.97-29.73,21.34-66.09,32-109.09,32-39.64,0-74.24-9.4-103.79-28.22-29.56-18.81-52.4-47.28-68.53-85.4-16.12-38.12-24.18-85.91-24.18-143.35,0-85.99,18.22-152.33,54.67-199.02,36.44-46.69,85.41-70.04,146.87-70.04,38.62,0,71.12,9.07,97.5,27.21,26.37,18.14,49.29,45.52,68.78,82.13,11.76,22.17,22.43,37.79,32,46.86,9.58,9.07,23.93,13.6,43.08,13.6,17.13,0,31.74-6.55,43.84-19.65,12.09-13.1,18.14-28.22,18.14-45.34,0-31.24-12.43-64.41-37.28-99.51-24.87-35.1-60.64-64.57-107.32-88.42C2699.2,11.95,2645.96.02,2586.18.02c-49.05,0-95.23,8.74-138.56,26.2"/>
    </clipPath>
    <linearGradient id="Degradado_sin_nombre_7-7" data-name="Degradado sin nombre 7" x1="-5233.17" y1="1244.27" x2="-5229.91" y2="1244.27" gradientTransform="translate(4572953.65 1087674.4) scale(873.84 -873.84)" xlink:href="#Degradado_sin_nombre_7"/>
  </defs>
  <g id="Capa_1-2" data-name="Capa 1">
    <g id="Logo_color_vector" data-name="Logo color vector">
      <g class="cls-16">
        <g class="cls-6">
          <rect class="cls-10" width="639.44" height="763.41"/>
        </g>
        <g class="cls-13">
          <rect class="cls-15" x="936.32" y="381.7" width="117.45" height="117.45"/>
        </g>
        <g class="cls-9">
          <rect class="cls-4" x="1471.36" y="0" width="642.7" height="130.49"/>
        </g>
        <g class="cls-3">
          <rect class="cls-8" x="1471.36" y="319.72" width="642.7" height="130.5"/>
        </g>
        <g class="cls-7">
          <rect class="cls-14" x="1471.36" y="639.44" width="642.7" height="130.5"/>
        </g>
        <g class="cls-1">
          <rect class="cls-12" x="623.95" width="743.62" height="782.1"/>
        </g>
        <g class="cls-2">
          <rect class="cls-11" x="2233.98" y=".02" width="658.54" height="763.85"/>
        </g>
      </g>
    </g>
  </g>
</svg>