<svg width="448" height="200" viewBox="0 0 448 200" fill="none" xmlns="http://www.w3.org/2000/svg">
<path d="M364.369 14.6065H83.6311C37.4486 14.6065 0.0102539 52.8348 0.0102539 99.9917V100.008C0.0102539 147.165 37.4486 185.393 83.6311 185.393H364.369C410.551 185.393 447.99 147.165 447.99 100.008V99.9917C447.99 52.8348 410.551 14.6065 364.369 14.6065Z" fill="white"/>
<path d="M363.055 21.1711H84.9447C42.3126 21.1711 7.75244 56.4604 7.75244 99.992V100.009C7.75244 143.54 42.3126 178.83 84.9447 178.83H363.055C405.687 178.83 440.248 143.54 440.248 100.009V99.992C440.248 56.4604 405.687 21.1711 363.055 21.1711Z" fill="black"/>
<path d="M73.788 118.014H79.6104L87.5075 141.939H82.8897L80.9823 136.016H71.8472L69.9733 141.939H65.7905L73.788 118.014ZM72.8845 132.771H79.945L76.4315 121.661L72.8845 132.771Z" fill="white"/>
<path d="M90.5522 135.648V124.438H94.6012V135.179C94.6012 137.823 95.7054 139.027 98.0478 139.027C100.223 139.027 102.13 137.622 102.13 134.844V124.438H106.179V141.938H102.13V139.194C101.26 140.901 99.4197 142.273 96.5754 142.273C93.1288 142.273 90.5522 140.299 90.5522 135.648Z" fill="white"/>
<path d="M112.036 137.054V127.484H109.694V124.439H112.036V120.59H116.085V124.439H119.933V127.484H116.085V136.686C116.085 138.225 116.821 138.928 118.093 138.928C118.896 138.928 119.498 138.827 120.067 138.593V141.805C119.431 142.04 118.561 142.24 117.323 142.24C113.843 142.24 112.036 140.367 112.036 137.054Z" fill="white"/>
<path d="M124.116 116.34H128.165V127.215C129.001 125.509 130.942 124.07 133.82 124.07C137.333 124.07 139.809 126.111 139.809 130.93V141.939H135.761V131.298C135.761 128.654 134.69 127.45 132.28 127.45C130.005 127.45 128.165 128.855 128.165 131.632V141.939H124.116V116.34Z" fill="white"/>
<path d="M143.69 133.372V133.105C143.69 127.684 147.538 124.07 152.691 124.07C157.844 124.07 161.659 127.65 161.659 133.004V133.272C161.659 138.726 157.811 142.273 152.658 142.273C147.505 142.273 143.69 138.693 143.69 133.372ZM157.51 133.305V133.071C157.51 129.457 155.703 127.249 152.691 127.249C149.68 127.249 147.839 129.424 147.839 133.038V133.305C147.839 136.886 149.613 139.128 152.691 139.128C155.77 139.128 157.51 136.886 157.51 133.305Z" fill="white"/>
<path d="M165.708 124.438H169.757V127.717C170.862 125.509 172.501 124.204 175.446 124.17V127.952C171.899 127.985 169.757 129.123 169.757 132.837V141.939H165.708V124.438Z" fill="white"/>
<path d="M179.06 119.251C179.06 117.913 180.131 116.909 181.469 116.909C182.808 116.909 183.879 117.913 183.879 119.251C183.879 120.59 182.808 121.56 181.469 121.56C180.131 121.56 179.06 120.556 179.06 119.251ZM179.495 124.438H183.544V141.939H179.495V124.438Z" fill="white"/>
<path d="M187.024 141.47L196.293 127.65H187.927V124.438H202.283V125.007L193.047 138.693H202.015V141.938H187.024V141.47Z" fill="white"/>
<path d="M204.424 133.372V133.105C204.424 127.684 208.139 124.07 213.124 124.07C217.475 124.07 221.39 126.646 221.39 132.904V134.075H208.574C208.707 137.388 210.381 139.262 213.392 139.262C215.835 139.262 217.106 138.291 217.408 136.585H221.323C220.754 140.266 217.776 142.273 213.292 142.273C208.139 142.273 204.424 138.894 204.424 133.372ZM217.374 131.365C217.173 128.353 215.634 127.014 213.124 127.014C210.615 127.014 209.042 128.654 208.641 131.365H217.374Z" fill="white"/>
<path d="M224.268 133.473V133.205C224.268 127.617 227.58 124.07 232.131 124.07C234.975 124.07 236.749 125.375 237.719 127.115V116.34H241.768V141.939H237.719V138.994C236.782 140.734 234.54 142.273 231.964 142.273C227.58 142.273 224.268 139.161 224.268 133.473ZM237.853 133.272V133.004C237.853 129.156 236.08 127.249 233.135 127.249C230.19 127.249 228.417 129.323 228.417 133.105V133.372C228.417 137.221 230.358 139.061 232.968 139.061C235.779 139.061 237.853 137.187 237.853 133.272Z" fill="white"/>
<path d="M255.689 118.014H263.72C268.973 118.014 272.654 120.155 272.654 125.041V125.175C272.654 128.922 270.312 130.83 267.334 131.599L274.06 141.939H269.241L262.984 132.269H260.139V141.939H255.689V118.014ZM263.72 129.09C266.698 129.09 268.271 127.818 268.271 125.275V125.141C268.271 122.397 266.564 121.46 263.72 121.46H260.139V129.09H263.72Z" fill="white"/>
<path d="M275.832 133.372V133.105C275.832 127.684 279.546 124.07 284.532 124.07C288.882 124.07 292.797 126.646 292.797 132.904V134.075H279.981C280.115 137.388 281.788 139.262 284.8 139.262C287.243 139.262 288.514 138.291 288.815 136.585H292.73C292.162 140.266 289.183 142.273 284.7 142.273C279.546 142.273 275.832 138.894 275.832 133.372ZM288.782 131.365C288.581 128.353 287.042 127.014 284.532 127.014C282.023 127.014 280.45 128.654 280.048 131.365H288.782Z" fill="white"/>
<path d="M295.642 136.484H299.456C299.657 138.258 300.561 139.295 302.936 139.295C305.111 139.295 306.082 138.525 306.082 137.053C306.082 135.581 304.911 135.079 302.334 134.644C297.716 133.908 296.01 132.603 296.01 129.323C296.01 125.81 299.289 124.07 302.568 124.07C306.149 124.07 308.993 125.408 309.428 129.357H305.68C305.346 127.751 304.442 127.014 302.568 127.014C300.828 127.014 299.791 127.851 299.791 129.089C299.791 130.327 300.627 130.863 303.405 131.331C307.521 131.967 309.963 132.971 309.963 136.685C309.963 140.399 307.454 142.273 302.97 142.273C298.486 142.273 295.809 140.199 295.642 136.484Z" fill="white"/>
<path d="M312.742 133.372V133.105C312.742 127.684 316.456 124.07 321.442 124.07C325.792 124.07 329.708 126.646 329.708 132.904V134.075H316.891C317.025 137.388 318.698 139.262 321.71 139.262C324.153 139.262 325.424 138.291 325.725 136.585H329.641C329.072 140.266 326.094 142.273 321.61 142.273C316.456 142.273 312.742 138.894 312.742 133.372ZM325.692 131.365C325.491 128.353 323.952 127.014 321.442 127.014C318.933 127.014 317.36 128.654 316.958 131.365H325.692Z" fill="white"/>
<path d="M333.822 116.34H337.871V141.939H333.822V116.34Z" fill="white"/>
<path d="M343.293 116.34H347.342V141.939H343.293V116.34Z" fill="white"/>
<path d="M351.491 133.372V133.105C351.491 127.684 355.205 124.07 360.191 124.07C364.541 124.07 368.456 126.646 368.456 132.904V134.075H355.64C355.774 137.388 357.447 139.262 360.459 139.262C362.901 139.262 364.173 138.291 364.474 136.585H368.389C367.82 140.266 364.842 142.273 360.358 142.273C355.205 142.273 351.491 138.894 351.491 133.372ZM364.441 131.365C364.24 128.353 362.701 127.014 360.191 127.014C357.681 127.014 356.109 128.654 355.707 131.365H364.441Z" fill="white"/>
<path d="M372.472 124.438H376.521V127.717C377.625 125.509 379.264 124.204 382.209 124.17V127.952C378.662 127.985 376.521 129.123 376.521 132.837V141.939H372.472V124.438Z" fill="white"/>
<path fill-rule="evenodd" clip-rule="evenodd" d="M140.491 69.635L139.823 70.4306V66.3116H133.022V98.0318H139.875V81.6199C139.875 75.3708 143.442 71.8934 149.922 71.7266V65.8753C145.687 65.9523 142.595 67.1841 140.503 69.635" fill="white"/>
<path fill-rule="evenodd" clip-rule="evenodd" d="M254.129 56.1103H260.981V98.0832H254.129V56.1103Z" fill="white"/>
<path fill-rule="evenodd" clip-rule="evenodd" d="M111.516 71.4956C117.214 71.4956 121.525 76.0894 121.525 82.1716C121.525 88.2539 117.214 92.8477 111.516 92.8477C105.819 92.8477 101.662 88.2539 101.662 82.1716C101.623 76.0765 105.896 71.4956 111.516 71.4956ZM94.7837 82.1716C94.7837 91.7057 101.982 98.8658 111.478 98.8658C117.727 98.8658 121.487 94.4773 121.487 94.4773V97.9933H128.339V82.1331C128.339 72.5991 121.102 65.4389 111.478 65.4389C101.982 65.4774 94.7837 72.6761 94.7837 82.1716Z" fill="white"/>
<path fill-rule="evenodd" clip-rule="evenodd" d="M173.173 66.3115H180.025V98.0318H173.173V66.3115Z" fill="white"/>
<path fill-rule="evenodd" clip-rule="evenodd" d="M181.359 57.5349C181.359 55.007 179.306 52.9026 176.727 52.9026C174.148 52.9026 172.172 54.9557 172.172 57.5349C172.172 60.1141 174.225 62.0902 176.727 62.0902C179.229 62.0902 181.359 60.0756 181.359 57.5349Z" fill="white"/>
<path fill-rule="evenodd" clip-rule="evenodd" d="M200.351 92.8992C194.731 92.8992 190.497 88.3054 190.497 82.2231C190.497 76.1409 194.731 71.5471 200.351 71.5471C204.393 71.5471 207.755 73.767 209.372 77.4754H216.532C214.518 70.1997 208.217 65.529 200.351 65.529C190.817 65.529 183.657 72.7276 183.657 82.2231C183.657 91.7187 190.817 98.9173 200.351 98.9173C207.948 98.9173 214.197 94.4904 216.378 87.5612H209.103C207.396 90.8846 204.162 92.8992 200.351 92.8992Z" fill="white"/>
<path fill-rule="evenodd" clip-rule="evenodd" d="M326.821 79.0925L326.975 78.6177C328.323 74.2292 331.915 71.5346 336.317 71.5346C340.718 71.5346 344.426 74.2677 345.774 78.6177L345.928 79.0925H326.821ZM336.317 65.4779C326.783 65.4779 319.623 72.6766 319.623 82.1721C319.623 91.6677 326.783 98.8663 336.317 98.8663C343.323 98.8663 349.174 95.1066 351.792 89.0115H344.157C342.296 91.5009 339.525 92.8482 336.355 92.8482C331.569 92.8482 327.694 89.4863 326.706 84.5075L326.629 84.0712H353.101C353.178 83.3655 353.216 82.7624 353.216 82.1721C353.178 72.6766 345.941 65.4779 336.317 65.4779Z" fill="white"/>
<path fill-rule="evenodd" clip-rule="evenodd" d="M265.537 56.1103H297.783V61.5638H265.537V56.1103Z" fill="white"/>
<path fill-rule="evenodd" clip-rule="evenodd" d="M160.867 56.1101H154.015V87.8304C154.015 94.4003 157.659 98.5065 163.511 98.5065C165.602 98.5065 168.143 98.2242 169.054 98.1087V92.1804C168.181 92.2959 166.128 92.5782 164.666 92.5782C162.523 92.5782 160.867 90.7561 160.867 88.4207V71.919H169.054V66.2986H160.867V56.0973" fill="white"/>
<path fill-rule="evenodd" clip-rule="evenodd" d="M309.256 88.3952V71.8935H317.442V66.3116H309.256V56.1103H302.403V87.8306C302.403 94.4005 306.048 98.5067 311.899 98.5067C313.99 98.5067 316.531 98.1859 317.442 98.1089V92.1806C316.57 92.296 314.517 92.5784 313.054 92.5784C310.962 92.5784 309.256 90.7562 309.256 88.3824" fill="white"/>
<path fill-rule="evenodd" clip-rule="evenodd" d="M281.602 71.4956C287.3 71.4956 291.611 76.0894 291.611 82.1716C291.611 88.2539 287.3 92.8477 281.602 92.8477C275.905 92.8477 271.748 88.2539 271.748 82.1716C271.748 76.0894 275.982 71.4956 281.602 71.4956ZM264.908 82.1716C264.908 91.7057 272.107 98.8658 281.602 98.8658C287.851 98.8658 291.611 94.4773 291.611 94.4773V97.9933H298.463V82.1331C298.463 72.5991 291.226 65.4389 281.602 65.4389C272.068 65.4774 264.908 72.6761 264.908 82.1716Z" fill="white"/>
<path fill-rule="evenodd" clip-rule="evenodd" d="M234.227 92.8218C227.939 92.8218 227.028 87.6377 227.028 82.1457V66.3241H220.228V83.8524C220.228 91.6028 224.27 98.8399 233.521 98.8399C239.578 98.8399 242.658 94.4899 242.658 94.4899V98.0059H249.51V66.3241H242.658V81.9918C242.658 89.3444 238.385 92.8346 234.227 92.8346" fill="white"/>
</svg>
