<svg xmlns="http://www.w3.org/2000/svg" xmlns:xlink="http://www.w3.org/1999/xlink" id="Layer_1" x="0px" y="0px" viewBox="0 0 172 46" style="enable-background:new 0 0 172 46;" xml:space="preserve"><style type="text/css">	.class-logotype{fill:#000000;}	.class-icon-1{fill:#FFBA00;}	.class-icon-2{fill:#4741E3;}</style><path class="class-logotype" d="M49.369,28.84c0-8.5,6.265-14.802,15.199-14.802c7.077,0,12.473,3.99,14.271,9.887c0.116,0.405-0.116,0.867-0.522,0.983 c-0.058,0-0.174,0.058-0.232,0.058H74.14c-0.29,0-0.58-0.173-0.696-0.462c-1.45-3.296-4.699-5.435-8.876-5.435 c-5.801,0-9.688,4.105-9.688,9.772c0,5.666,3.887,9.772,9.688,9.772c4.177,0,7.426-2.139,8.876-5.435 c0.116-0.289,0.406-0.463,0.696-0.463h3.945c0.464,0,0.812,0.347,0.812,0.81c0,0.058,0,0.174-0.058,0.231 c-1.798,5.898-7.193,9.887-14.271,9.887C55.634,43.642,49.369,37.397,49.369,28.84z M82.552,2.531h3.829 c0.406,0,0.812,0.347,0.812,0.752v38.798c0,0.463-0.348,0.81-0.812,0.81h-3.829c-0.406,0-0.754-0.347-0.754-0.81V3.341 C81.798,2.878,82.146,2.531,82.552,2.531L82.552,2.531z M90.094,29.071c0-8.789,6.265-15.033,15.2-15.033 c8.933,0,15.025,6.013,15.025,15.033v13.01c0,0.405-0.348,0.81-0.754,0.81H116.2c-0.464,0-0.812-0.347-0.812-0.81v-5.377 c-1.857,4.568-6.034,6.881-10.907,6.881C97.056,43.642,90.094,38.38,90.094,29.071L90.094,29.071z M114.924,28.84 c0-5.666-3.887-9.772-9.688-9.772c-5.802,0-9.689,4.105-9.689,9.772c0,5.666,3.887,9.772,9.689,9.772 C111.037,38.611,114.924,34.564,114.924,28.84z M123.393,34.796h3.945c0.348,0,0.696,0.231,0.754,0.636 c0.464,2.024,2.553,3.354,6.15,3.354c4.119,0,6.207-1.792,6.207-3.99c0-2.66-2.959-3.007-6.497-3.469 c-4.873-0.636-10.849-1.561-10.849-7.979c0-5.493,4.351-9.251,11.081-9.251c6.323,0,10.384,3.354,10.964,7.748 c0.058,0.405-0.232,0.809-0.696,0.867h-3.945c-0.348,0-0.638-0.231-0.754-0.578c-0.464-1.85-2.379-3.122-5.511-3.122 c-3.597,0-5.628,1.677-5.628,3.932c0,2.66,2.959,2.949,6.44,3.411c4.873,0.636,10.906,1.561,10.906,7.979 c0,5.666-4.641,9.367-11.718,9.367c-6.672,0-10.965-3.296-11.603-7.979c-0.058-0.405,0.174-0.809,0.638-0.925H123.393 L123.393,34.796z M148.745,34.796h3.945c0.348,0,0.696,0.231,0.754,0.636c0.464,2.024,2.553,3.354,6.149,3.354 c4.119,0,6.208-1.792,6.208-3.99c0-2.66-2.959-3.007-6.498-3.469c-4.931-0.636-10.848-1.561-10.848-7.979 c0-5.493,4.351-9.251,11.08-9.251c6.324,0,10.385,3.354,10.965,7.748c0.058,0.405-0.232,0.809-0.696,0.867h-3.945 c-0.348,0-0.638-0.231-0.754-0.578c-0.465-1.85-2.379-3.122-5.512-3.122c-3.596,0-5.627,1.677-5.627,3.932 c0,2.66,2.959,2.949,6.439,3.411c4.932,0.636,10.907,1.561,10.907,7.979c0,5.666-4.641,9.367-11.661,9.367 c-7.019,0-10.964-3.296-11.602-7.979c-0.058-0.405,0.174-0.809,0.638-0.925C148.629,34.796,148.687,34.796,148.745,34.796 L148.745,34.796z"></path><path class="class-icon-1" d="M22.335,27.452H2.901C1.276,27.452,0,26.18,0,24.561V5.191C0,3.572,1.276,2.3,2.901,2.3h19.434 c1.624,0,2.901,1.272,2.901,2.891v19.37C25.236,26.18,23.959,27.452,22.335,27.452z"></path><path class="class-icon-2" d="M38.578,27.278h-7.31c-1.624,0-2.901-1.272-2.901-2.891V17.16c0-1.619,1.276-2.891,2.901-2.891h7.252 c1.624,0,2.901,1.272,2.901,2.891v7.228C41.479,26.006,40.144,27.278,38.578,27.278z M38.519,43.527h-7.31 c-1.624,0-2.901-1.272-2.901-2.891v-7.17c0-1.619,1.276-2.891,2.901-2.891h7.252c1.624,0,2.901,1.272,2.901,2.891v7.228 C41.42,42.255,40.086,43.584,38.519,43.527L38.519,43.527z M22.45,43.468h-7.252c-1.624,0-2.901-1.272-2.901-2.891V33.35 c0-1.619,1.276-2.891,2.901-2.891h7.252c1.624,0,2.901,1.272,2.901,2.891v7.228C25.351,42.196,24.016,43.468,22.45,43.468z"></path></svg>