<svg width="643" height="96" viewBox="0 0 643 96" fill="none" xmlns="http://www.w3.org/2000/svg">
<circle cx="399" cy="48" r="42" fill="white"/>
<path
    fill="#484949"
    fill-rule="evenodd"
    clip-rule="evenodd"
    d="M30.3369 5.65478C16.6662 7.65283 5.69302 16.7981 1.48429 29.7017C0.0791537 34.0099 -0.00776724 34.7779 0.000461978 42.8058C0.0102342 52.364 0.599652 55.4329 3.60331 61.5707C6.89191 68.2905 11.598 72.9833 18.5075 76.4326C24.3358 79.3418 28.8356 80.1842 36.766 79.8498C43.5099 79.5656 46.9553 78.7878 51.4243 76.5427C54.6651 74.9141 59.0651 71.5579 60.1596 69.8792C60.9789 68.6228 60.9404 68.5298 58.342 65.5167C54.9258 61.5537 53.9507 61.3087 50.7937 63.6194C46.8694 66.4914 44.2351 67.6005 39.8597 68.2223C27.072 70.0395 16.5983 62.5015 14.1213 49.6972C13.2058 44.9667 13.6928 36.0395 15.0743 32.231C17.451 25.6777 22.0357 20.7549 27.8929 18.469C30.0042 17.6446 32.3238 17.2493 35.9945 17.0875C41.9139 16.827 45.6901 17.8059 50.6631 20.8893C54.771 23.4362 55.2838 23.3008 58.6753 18.7729C62.077 14.2315 62.1423 14.4667 56.4354 10.7145C49.2317 5.9778 40.159 4.21904 30.3369 5.65478ZM179.086 12.0195C178.68 12.4262 177.964 14.9266 177.494 17.5754C177.024 20.2241 176.402 23.5856 176.112 25.0451L175.586 27.699L171.495 28.3383L167.405 28.9776V32.1706C167.405 33.965 167.675 35.6354 168.022 35.9837C168.37 36.3336 170.039 36.6039 171.854 36.6039H175.068L175.223 53.7884C175.37 70.226 175.425 71.0628 176.482 73.0469C177.901 75.708 179.814 77.6172 182.214 78.7666C184.865 80.0364 191.09 80.3233 194.793 79.3454C197.852 78.5381 202.379 76.1778 202.379 75.3912C202.379 74.3529 197.934 68.397 197.229 68.4905C196.808 68.5463 195.383 68.9753 194.062 69.443C192.003 70.1718 191.454 70.194 190.219 69.5991C187.6 68.337 187.479 67.5411 187.471 51.4627L187.463 36.6039H194.407H201.35V32.2109V27.8178H194.407H187.463V19.5486V11.2794H183.643C181.013 11.2794 179.592 11.5099 179.086 12.0195ZM139.959 26.8131C130.801 28.2261 125.044 34.2802 125.07 42.4704C125.083 46.5342 125.853 48.8723 128.035 51.473C130.049 53.8721 132.953 55.4334 139.272 57.5136C145.827 59.6714 148.537 60.9903 149.627 62.5532C151.512 65.2578 149.838 69.0337 146.121 70.4601C142.525 71.8401 138.424 71.3491 133.953 69.0022C129.748 66.7953 128.379 66.6501 126.946 68.2595C125.253 70.1614 123.568 73.2758 123.843 73.9963C124.262 75.0925 130.997 78.3831 134.541 79.2229C136.35 79.6514 139.576 80.0054 141.709 80.0095C153.904 80.0338 161.762 73.5223 161.917 63.2649C162.031 55.7249 158.732 52.3195 147.63 48.5209C137.918 45.1966 135.701 43.2529 137.283 39.449C138.95 35.4395 145.544 34.4725 151.75 37.3274C156.267 39.4051 157.542 39.1875 159.628 35.9832C161.691 32.8135 161.555 32.414 157.589 29.9952C152.781 27.0633 146.124 25.8617 139.959 26.8131ZM228.867 26.7692C224.572 27.4447 222.302 28.2261 219.084 30.1379C211.577 34.5976 207.548 42.6363 207.53 53.1888C207.501 70.2147 218.302 80.7822 234.781 79.8514C249.772 79.0043 258.407 69.3092 258.433 53.2969C258.442 47.5156 257.77 44.0581 255.833 39.9276C253.084 34.0642 248.12 29.6877 242.11 27.8277C238.513 26.7139 232.349 26.2214 228.867 26.7692ZM290.506 26.7909C287.636 27.3811 284.543 29.0205 282.081 31.2553C279.973 33.1691 279.931 33.1546 279.313 30.3089C278.754 27.7357 277.813 27.301 272.8 27.301H268.203L268.337 53.2715L268.47 79.2421L274.513 79.3878L280.556 79.533V60.4477V41.3623L282.363 39.7679C285.234 37.236 287.224 36.4003 290.431 36.3806C293.779 36.3599 295.577 37.3843 297.272 40.2759C298.241 41.9288 298.31 43.1185 298.459 60.7655L298.617 79.5005H304.759H310.902L310.905 62.0576C310.906 50.9908 311.114 43.8679 311.472 42.5717C313.054 36.8468 320.905 34.257 325.332 38.0004C328.14 40.3747 328.114 40.1757 328.389 60.3779L328.646 79.2421L334.712 79.3878L340.777 79.5335L340.627 59.2316L340.475 38.9296L339.143 36.0871C338.41 34.5237 337.215 32.536 336.486 31.6703C332.063 26.4172 321.055 24.9091 314.063 28.5988C311.18 30.1203 310.056 31.0759 308.096 33.6735L306.602 35.6535L305.85 34.1903C302.789 28.2334 297.018 25.4503 290.506 26.7909ZM69.6829 45.7982C69.6829 66.2511 69.9251 68.3288 72.8419 72.8959C76.1207 78.0306 81.2928 80.3377 88.5093 79.8855C93.3018 79.5852 96.7812 78.2255 100.542 75.1829L102.857 73.3104L103.495 75.5013C104.47 78.8451 105.597 79.5005 110.372 79.5005H114.429V53.4007V27.301H108.257H102.085V46.1192V64.9373L100.414 66.3581C97.3197 68.9877 93.6181 70.3418 90.2034 70.0937C86.759 69.8436 84.9218 68.7541 83.3125 66.0087C82.344 64.3569 82.2751 63.1713 82.1311 45.7776L81.9783 27.301H75.8306H69.6829V45.7982ZM239.33 37.6546C243.939 40.2568 245.825 45.4737 245.474 54.6463C245.292 59.4145 245.004 61.1904 244.063 63.3533C241.851 68.4373 238.284 70.4359 231.992 70.117C226.863 69.8565 224.678 68.3882 222.352 63.6396C220.671 60.2094 220.638 60.0104 220.656 53.4116C220.671 47.7038 220.846 46.2463 221.812 43.8131C223.135 40.4754 225.594 37.8706 228.417 36.8148C231.311 35.732 236.654 36.1429 239.33 37.6546Z"/>
<path
    fill="#F8AB1F"
    fill-rule="evenodd"
    clip-rule="evenodd"
    d="M393.136 0.463076C371.762 2.72057 354.621 18.6812 350.793 39.8907C349.988 44.353 350.105 53.2512 351.026 57.5558C354.626 74.3796 365.963 87.523 381.76 93.1884C388.322 95.5421 393.332 96.2759 400.355 95.9116C420.749 94.8547 437.841 81.1314 443.671 61.1328C445.353 55.365 445.902 46.7707 444.962 40.9161C441.457 19.0673 424.21 2.73504 402.251 0.470829C399.365 0.173137 397.113 8.98647e-07 396.93 0C396.855 0 395.181 0.247043 393.136 0.463076ZM573.012 16.7369V30.4752L571.242 29.1185C568.296 26.8605 564.712 25.771 560.229 25.771C550.693 25.771 543.313 31.2447 539.824 40.9042C535.504 52.8625 538.162 68.8464 545.554 75.3688C552.488 81.4865 563.529 81.0404 571.109 74.3362C572.397 73.196 573.558 72.4425 573.687 72.6622C573.816 72.8813 574.085 74.0503 574.284 75.2602C574.805 78.4212 575.906 79.0041 581.359 79.0041H585.877L585.745 41.1466L585.613 3.28908L579.313 3.14385L573.012 2.99863V16.7369ZM517.577 4.40698C515.049 5.65925 513.692 7.91881 513.459 11.2663C513.294 13.6416 513.469 14.4484 514.462 15.8986C517.934 20.9697 525.857 20.6147 528.61 15.265C532.114 8.45631 524.51 0.973184 517.577 4.40698ZM409.194 16.171C414.331 17.9297 418.172 20.2606 421.759 23.7978C424.426 26.4274 427.458 30.2095 427.458 30.9083C427.458 31.0897 425.796 32.1409 423.764 33.2433L420.07 35.2481L419.294 33.9984C417.863 31.6918 412.824 27.0765 410.189 25.6589C402.85 21.7103 393.42 21.7103 386.1 25.6589C384.668 26.431 382.074 28.4859 380.334 30.2245C367.462 43.0919 372.278 65.3212 389.344 71.8135C392.936 73.18 399.468 73.6539 403.397 72.8332C409.43 71.5732 415.948 67.1471 419.06 62.1959C419.86 60.924 420.694 59.8831 420.913 59.8826C421.132 59.8821 422.923 60.6971 424.892 61.6936L428.473 63.5055L426.888 66.0943C423.201 72.1164 416.054 77.6201 408.685 80.1122C405.666 81.1335 404.047 81.3298 398.656 81.3298C392.949 81.3298 391.753 81.1665 388.013 79.876C377.916 76.3926 370.395 68.8345 366.928 58.6887C365.644 54.9304 365.482 53.7293 365.482 47.9946C365.482 42.5772 365.677 40.9502 366.693 37.9164C369.773 28.7226 377.029 20.5676 385.173 17.1483C392.672 13.9998 401.772 13.6292 409.194 16.171ZM613.644 26.5675C609.183 27.8187 606.415 29.3707 603.235 32.4035C597.755 37.6312 595.513 43.1576 595.441 51.6123C595.367 60.2185 597.555 66.6902 602.287 71.8709C607.147 77.1906 612.924 79.5613 621.102 79.5918C629.244 79.6223 636.432 77.1389 640.591 72.858L642.481 70.9137L640.362 68.2386C639.196 66.7672 637.714 65.4307 637.07 65.2684C636.297 65.0731 634.413 65.6891 631.528 67.0794C619.975 72.6467 610.321 68.6795 608.601 57.6577L608.142 54.7133H624.522C644.456 54.7133 643.246 55.1702 642.823 47.7987C642.243 37.6797 637.451 30.4602 629.219 27.3003C625.304 25.7979 617.669 25.4387 613.644 26.5675ZM455.746 45.3401C455.746 66.8086 455.978 68.5022 459.601 73.4353C465.356 81.272 478.32 81.9397 486.709 74.8318L489.127 72.7831L489.467 74.6059C489.654 75.6086 490.261 77.0081 490.816 77.7167C491.755 78.9168 492.134 79.0041 496.415 79.0041H501.006V52.63V26.2558L494.706 26.401L488.405 26.5463L488.271 45.4988L488.136 64.4519L486.53 65.809C483.532 68.3446 480.928 69.3627 477.347 69.401C473.499 69.4418 471.376 68.4485 469.831 65.884C468.941 64.4079 468.84 62.7101 468.604 45.4104L468.347 26.5463L462.046 26.401L455.746 26.2558V45.3401ZM514.893 52.63V79.0041H521.327H527.761L527.627 52.7752L527.494 26.5463L521.194 26.401L514.893 26.2558V52.63ZM625.872 36.3101C628.793 37.8374 631.131 41.6459 631.131 44.8771V46.4441H619.816C612.909 46.4441 608.501 46.2503 608.501 45.9469C608.501 45.673 608.963 44.2073 609.528 42.6898C611.472 37.4678 615.734 34.8475 621.5 35.3292C623.134 35.4657 625.101 35.9075 625.872 36.3101ZM569.639 37.3547C570.918 38.1077 572.2 39.1666 572.488 39.7078C572.798 40.2892 573.012 45.3226 573.012 52.0294V63.3676L570.667 65.5403C569.376 66.7352 567.532 68.0438 566.569 68.4485C564.011 69.5224 558.978 69.3932 556.639 68.1942C549.636 64.6048 548.995 44.5266 555.682 38.2601C558.893 35.2517 565.356 34.8325 569.639 37.3547ZM434.144 47.2193V51.6123H420H405.856V47.2193V42.8263H420H434.144V47.2193Z"/>
</svg>
