<?xml version="1.0" encoding="utf-8"?>
<!-- Generator: Adobe Illustrator 26.2.1, SVG Export Plug-In . SVG Version: 6.00 Build 0)  -->
<svg version="1.1" id="Layer_1" xmlns="http://www.w3.org/2000/svg" xmlns:xlink="http://www.w3.org/1999/xlink" x="0px" y="0px"
	 viewBox="0 0 889 189.2" style="enable-background:new 0 0 889 189.2;" xml:space="preserve">
<style type="text/css">
	.st0{fill:#D61D4C;}
	.st1{fill:#576373;}
	.st2{fill:#950029;}
</style>
<g id="Layer_6">
	<g>
		<path class="st0" d="M276,145.8c-6.7,0-12.9-1.2-18.6-3.5c-5.7-2.4-10.8-5.7-15.1-9.9s-7.7-9.2-10.2-14.8
			c-2.4-5.6-3.7-11.7-3.7-18.2s1.2-12.6,3.7-18.2c2.4-5.6,5.8-10.5,10.2-14.8c4.3-4.2,9.4-7.5,15.1-9.9s12-3.5,18.6-3.5
			c6.7,0,12.9,1.2,18.7,3.5c5.8,2.4,10.8,5.7,15.2,9.9c4.3,4.2,7.7,9.2,10.1,14.8c2.4,5.6,3.6,11.7,3.6,18.2s-1.2,12.6-3.6,18.2
			s-5.8,10.5-10.1,14.8c-4.3,4.2-9.4,7.5-15.2,9.9C288.9,144.6,282.7,145.8,276,145.8z M276,128.7c4.1,0,7.9-0.7,11.3-2.2
			s6.4-3.6,9-6.2s4.6-5.7,6-9.3c1.5-3.6,2.2-7.5,2.2-11.6c0-4.2-0.7-8.1-2.2-11.6c-1.5-3.6-3.5-6.6-6-9.3c-2.6-2.6-5.6-4.7-9-6.2
			s-7.2-2.2-11.3-2.2c-4,0-7.8,0.8-11.2,2.2c-3.4,1.5-6.4,3.6-9,6.2s-4.6,5.7-6,9.3c-1.5,3.6-2.2,7.4-2.2,11.5
			c0,4.2,0.7,8.1,2.2,11.7s3.5,6.7,6,9.3c2.6,2.6,5.6,4.7,9,6.2C268.2,128,272,128.7,276,128.7z"/>
		<path class="st0" d="M365.5,145.4c-7.5,0-13.1-1.7-16.9-5.1c-3.8-3.4-5.7-8.3-5.7-14.8V92.1H331c-1,0-1.9-0.8-1.9-1.9V79.3
			c0-1,0.8-1.9,1.9-1.9h11.9V76c0-9.2,6.4-17.1,15.3-19.2l0,0c1.2-0.3,2.3,0.6,2.3,1.8v18.7h17.3c1,0,1.9,0.8,1.9,1.9v10.9
			c0,1-0.8,1.9-1.9,1.9h-17.3v29.8c0,3.1,0.7,5.3,2.1,6.6s3.8,2,7.2,2c1.7,0,3.3-0.1,4.7-0.3c0.7-0.1,1.5-0.3,2.3-0.5
			c1.2-0.3,2.4,0.6,2.4,1.8V142c0,0.9-0.6,1.6-1.4,1.8c-1.5,0.4-3.3,0.7-5.3,1C369.7,145.3,367.4,145.4,365.5,145.4z"/>
		<path class="st0" d="M421.9,145.4c-7.5,0-13.1-1.7-16.9-5.1c-3.8-3.4-5.7-8.3-5.7-14.8V92.1h-11.9c-1,0-1.9-0.8-1.9-1.9V79.3
			c0-1,0.8-1.9,1.9-1.9h11.9V76c0-9.2,6.4-17.1,15.3-19.2l0,0c1.2-0.3,2.3,0.6,2.3,1.8v18.7h17.3c1,0,1.9,0.8,1.9,1.9v10.9
			c0,1-0.8,1.9-1.9,1.9h-17.3v29.8c0,3.1,0.7,5.3,2.1,6.6s3.8,2,7.2,2c1.7,0,3.3-0.1,4.7-0.3c0.7-0.1,1.5-0.3,2.3-0.5
			c1.2-0.3,2.4,0.6,2.4,1.8V142c0,0.9-0.6,1.6-1.4,1.8c-1.5,0.4-3.3,0.7-5.3,1C426.2,145.3,423.9,145.4,421.9,145.4z"/>
		<path class="st0" d="M474.5,145.7c-6.7,0-12.7-1.5-18.1-4.6s-9.7-7.2-12.9-12.5c-3.2-5.2-4.8-11.1-4.8-17.6s1.6-12.4,4.7-17.7
			s7.4-9.4,12.9-12.5c5.4-3.1,11.5-4.6,18.2-4.6s12.7,1.5,18.2,4.6c5.4,3.1,9.7,7.3,12.9,12.5c3.1,5.3,4.7,11.2,4.7,17.7
			s-1.6,12.4-4.7,17.6c-3.1,5.2-7.4,9.4-12.8,12.5C487.4,144.2,481.3,145.7,474.5,145.7z M474.5,130.4c3.5,0,6.7-0.9,9.4-2.6
			c2.8-1.7,5-4,6.7-7s2.5-6.2,2.5-9.8c0-3.7-0.8-7-2.5-9.9s-3.9-5.2-6.7-7c-2.8-1.8-5.9-2.6-9.4-2.6c-3.4,0-6.6,0.9-9.4,2.6
			c-2.8,1.8-5.1,4.1-6.7,7s-2.4,6.2-2.4,9.9c0,3.6,0.8,6.9,2.4,9.8c1.6,3,3.9,5.3,6.7,7C468,129.5,471.1,130.4,474.5,130.4z"/>
		<path class="st1" d="M616.6,145.7c-6.7,0-12.7-1.5-18.2-4.6c-5.4-3.1-9.7-7.2-12.9-12.5c-3.2-5.2-4.8-11.1-4.8-17.6
			s1.5-12.4,4.6-17.6c3-5.2,7.2-9.4,12.4-12.5s11.1-4.6,17.5-4.6s12.1,1.6,17.1,4.8c5,3.2,8.9,7.5,11.8,12.9
			c2.9,5.4,4.3,11.5,4.3,18.4v2.8c0,1-0.8,1.9-1.9,1.9h-47.7c0.8,2.7,2,5.1,3.8,7.2s3.9,3.8,6.6,5c2.6,1.2,5.4,1.8,8.4,1.8
			s5.8-0.5,8.3-1.4c2-0.7,3.8-1.7,5.3-2.9c0.7-0.6,1.7-0.5,2.4,0.1l8.7,7.9c0.9,0.8,0.8,2.2-0.2,2.9c-3.5,2.6-7.2,4.6-10.9,5.9
			C626.9,144.9,622,145.7,616.6,145.7z M598.5,104.3H631c-0.6-2.7-1.7-5-3.3-7s-3.5-3.6-5.7-4.8c-2.2-1.2-4.6-1.7-7.3-1.7
			s-5.2,0.6-7.4,1.7s-4,2.7-5.6,4.7C600.3,99.2,599.2,101.6,598.5,104.3z"/>
		<path class="st1" d="M678.3,145.6c-4.8,0-9-0.9-12.7-2.6c-3.7-1.8-6.6-4.2-8.6-7.3c-2.1-3.1-3.1-6.6-3.1-10.7
			c0-6.4,2.4-11.4,7.3-15c4.8-3.6,11.5-5.3,20-5.3c5.8,0,11.3,0.9,16.5,2.7v-4.9c0-3.9-1.2-6.8-3.6-8.7c-2.4-2-5.9-3-10.5-3
			c-2.8,0-5.9,0.4-9.1,1.3c-2.8,0.8-6.1,1.9-9.7,3.5c-0.9,0.4-2,0-2.4-0.9l-4.8-9.6c-0.5-1-0.1-2.1,0.9-2.6c4.7-2,9.1-3.5,13.4-4.6
			c4.8-1.2,9.7-1.8,14.6-1.8c9,0,16,2.2,21,6.5S715,93,715,100.9v41.6c0,1-0.8,1.9-1.9,1.9h-13.6c-1,0-1.9-0.8-1.9-1.9v-2.9
			c-2.7,2.1-5.7,3.6-8.9,4.5C685.5,145.1,682.1,145.6,678.3,145.6z M670.6,124.6c0,2.6,1.1,4.6,3.3,6.1s5.2,2.2,8.9,2.2
			c2.9,0,5.6-0.4,8.1-1.1c2.5-0.7,4.7-1.8,6.7-3.3v-9.8c-2.1-0.9-4.4-1.5-6.7-1.9s-4.8-0.6-7.5-0.6c-4,0-7.2,0.8-9.4,2.2
			C671.7,120,670.6,122,670.6,124.6z"/>
		<path class="st1" d="M722.4,142.5V79.3c0-1,0.8-1.9,1.9-1.9h13.9c1,0,1.9,0.8,1.9,1.9v5.6c2.1-2.9,4.7-5.1,7.7-6.7
			c3-1.5,6.4-2.3,10.2-2.3c2.6,0.1,4.6,0.4,6.2,1c0.7,0.3,1.1,1,1.1,1.7v11.5c0,1.2-1.2,2.2-2.4,1.8c-0.6-0.2-1.2-0.3-1.9-0.5
			c-1.5-0.3-3.1-0.4-4.8-0.4c-3.4,0-6.6,0.9-9.4,2.6c-2.8,1.7-5.1,4.2-6.8,7.3v41.6c0,1-0.8,1.9-1.9,1.9h-13.9
			C723.2,144.4,722.4,143.6,722.4,142.5z"/>
		<path class="st1" d="M774.2,142.5V79.3c0-1,0.8-1.9,1.9-1.9H790c1,0,1.9,0.8,1.9,1.9V83c5.1-4.5,11.3-6.8,18.8-6.8
			c5.2,0,9.8,1.1,13.8,3.4s7.1,5.4,9.3,9.4s3.3,8.6,3.3,13.9v39.6c0,1-0.8,1.9-1.9,1.9h-13.9c-1,0-1.9-0.8-1.9-1.9v-37.1
			c0-4.4-1.2-7.8-3.7-10.3s-5.9-3.8-10.2-3.8c-3,0-5.7,0.6-8,1.7c-2.3,1.2-4.2,2.8-5.8,4.9v44.5c0,1-0.8,1.9-1.9,1.9h-13.9
			C775,144.4,774.2,143.6,774.2,142.5z"/>
		<path class="st1" d="M518.7,142.5V56.3c0-1,0.8-1.9,1.9-1.9h14.9c1,0,1.9,0.8,1.9,1.9V128h25.3c7.8,0,15.1,3.8,19.6,10.2l2.3,3.3
			c0.9,1.2,0,2.9-1.5,2.9h-62.4C519.6,144.4,518.7,143.6,518.7,142.5z"/>
		<g>
			<path class="st0" d="M74.8,102.1c-0.6-0.9,0.5-1.9,1.3-1.3c18.9,14.6,42.8,5.5,44.2-14.4c1.3-17.8-5.9-37.9-15.6-57.7
				c-0.1-0.3,0-0.7,0.4-0.7c55.9-10.2,87.6,38.3,82.4,74.8c0,0.3-0.4,0.2-0.4,0c0.6-31.4-26.8-47.1-34.3-50.9
				c12.7,35.3-8.8,75.8-48,68.1C90.4,117.2,79.2,108.2,74.8,102.1z"/>
		</g>
		<path class="st2" d="M168,78.2c-2.3,97.6-142.4,55.7-99.2-26.9c0.3-0.5-0.5-1-0.9-0.5c-10,11.8-16,27.1-16,43.8
			c0,35.2,26.7,64.1,60.9,67.7c0.1,0,0.2,0,0.2,0c1,0.1,1.9,0.2,2.9,0.2c0.3,0,0.5,0,0.8,0c0.7,0,1.5,0,2.2,0.1c0.6,0,2.6,0,3,0
			c0.7,0,1.5,0,2.2-0.1c0.3,0,0.7-0.1,1-0.1c0.7,0,1.3-0.1,2-0.2c0.2,0,0.5,0,0.7-0.1c35.3-4.1,58.9-40,47.3-73.6
			c-1-2.9-3.7-8.1-6.3-10.8C168.5,77.5,168,77.7,168,78.2z"/>
	</g>
</g>
</svg>
